<?xml version="1.0" encoding="utf-8"?>
<!-- Generator: Adobe Illustrator 16.0.4, SVG Export Plug-In . SVG Version: 6.00 Build 0)  -->
<!DOCTYPE svg PUBLIC "-//W3C//DTD SVG 1.1//EN" "http://www.w3.org/Graphics/SVG/1.1/DTD/svg11.dtd">
<svg version="1.1" id="Layer_1" xmlns="http://www.w3.org/2000/svg" xmlns:xlink="http://www.w3.org/1999/xlink" x="0px" y="0px"
	 width="185.991px" height="118.494px" viewBox="74.602 158.602 185.991 118.494"
	 enable-background="new 74.602 158.602 185.991 118.494" xml:space="preserve">
<rect x="136.333" y="216.506" fill="#D79060" stroke="#C86F29" stroke-miterlimit="10" width="3.333" height="50.161"/>
<polygon fill="#FFFFFF" stroke="#C76F29" stroke-miterlimit="10" points="136.333,266.667 139.666,266.667 139.666,266.667 "/>
<rect x="184.333" y="216.506" fill="#D79060" stroke="#C86F29" stroke-miterlimit="10" width="3.333" height="50.161"/>
<ellipse fill="#FFFFFF" stroke="#000000" stroke-miterlimit="10" cx="162.076" cy="211.443" rx="0" ry="27.848"/>
<path fill="#FFFFFF" stroke="#C86F29" stroke-miterlimit="10" d="M134.228,211.442c0-0.814,0.033-1.621,0.099-2.418"/>
<path fill="#FFFFFF" stroke="#000000" stroke-miterlimit="10" d="M171.527,238.222"/>
<path fill="#FFFFFF" stroke="#C86F29" stroke-miterlimit="10" d="M134.327,209.024c1.201-14.587,13.166-26.042,27.749-26.042
	c15.379,0,27.848,12.742,27.848,28.46"/>
<circle fill="#FFFFFF" stroke="#000000" stroke-miterlimit="10" cx="151.667" cy="198.5" r="3.333"/>
<circle fill="#FFFFFF" stroke="#000000" stroke-miterlimit="10" cx="171.527" cy="198.5" r="3.333"/>
<line fill="none" stroke="#000000" stroke-miterlimit="10" x1="144" y1="208.67" x2="144" y2="211.443"/>
<text transform="matrix(1 0 0 1 190.3337 179.8337)" font-family="'MyriadPro-Regular'" font-size="12">Hand Holes</text>
<text transform="matrix(1 0 0 1 82.3342 175.4998)" font-family="'MyriadPro-Regular'" font-size="12">Transparent dome</text>
<text transform="matrix(1 0 0 1 148.3337 243.4998)" font-family="'MyriadPro-Regular'" font-size="12">Legs</text>
<text transform="matrix(1 0 0 1 207.5002 202.8328)" font-family="'MyriadPro-Regular'" font-size="12">Tilt Bed</text>
<line fill="none" stroke="#ED1C24" stroke-miterlimit="10" x1="125.167" y1="177.333" x2="141" y2="188"/>
<line fill="none" stroke="#ED1C24" stroke-miterlimit="10" x1="193" y1="181.5" x2="173.5" y2="194.167"/>
<line fill="none" stroke="#ED1C24" stroke-miterlimit="10" x1="207.5" y1="200.167" x2="157" y2="208.167"/>
<line fill="none" stroke="#ED1C24" stroke-miterlimit="10" x1="148.333" y1="239.333" x2="141" y2="239.333"/>
<line fill="none" stroke="#ED1C24" stroke-miterlimit="10" x1="173.5" y1="239.333" x2="182.25" y2="239.333"/>
<text transform="matrix(1 0 0 1 196.0002 226.6667)" font-family="'MyriadPro-Regular'" font-size="12">Electronics</text>
<line fill="none" stroke="#ED1C24" stroke-miterlimit="10" x1="202.333" y1="216.506" x2="193" y2="213.975"/>
<line fill="none" stroke="#ED1C24" stroke-miterlimit="10" x1="193" y1="181.5" x2="154.333" y2="194.167"/>
<g>
	<polygon fill="#ED1C24" points="140.284,185.164 142.167,188.844 138.05,188.481 	"/>
</g>
<g>
	<polygon fill="#ED1C24" points="157.357,194.953 153.333,194.167 156.112,191.152 	"/>
</g>
<g>
	<polygon fill="#ED1C24" points="176.996,194.631 172.5,195.167 174.817,191.276 	"/>
</g>
<g>
	<polygon fill="#ED1C24" points="160.555,209.47 156,208.167 159.929,205.519 	"/>
</g>
<g>
	<polygon fill="#ED1C24" points="194.366,216.41 192.164,213.975 195.084,212.475 	"/>
</g>
<g>
	<polygon fill="#ED1C24" points="181.497,237.333 183.25,239.333 181.497,241.333 	"/>
</g>
<g>
	<polygon fill="#ED1C24" points="142.164,241.333 140,239.333 142.164,237.333 	"/>
</g>
<rect x="134.277" y="211.443" fill="#D79060" stroke="#C86F29" stroke-miterlimit="10" width="55.696" height="5.062"/>
<line fill="none" stroke="#C86F29" stroke-miterlimit="10" x1="189.591" y1="211.663" x2="135.333" y2="208.386"/>
</svg>
